{
.appVersion = "3151";
.formatVersion = 3;
customParameters = (
{
name = vendorID;
value = GOOG;
},
{
name = panose;
value = (
2,
2,
2,
0,
0,
0,
0,
0,
0,
0
);
},
{
name = unicodeRanges;
value = (
0,
1,
7,
29,
36,
42,
43,
44,
45,
48,
49,
50,
51,
52,
54,
55,
57,
59,
61,
65,
66,
68
);
},
{
name = codePageRanges;
value = (
"1252",
"1250",
"1251",
"1258",
"932",
"936",
"bit 29",
"bit 30"
);
},
{
name = fsType;
value = (
);
},
{
name = ROS;
value = "Adobe-Identity-0";
}
);
date = "2017-05-01 10:51:04 +0000";
familyName = "Yaku Han MP";
featurePrefixes = (
{
automatic = 1;
code = "languagesystem DFLT dflt;
";
name = Languagesystems;
}
);
features = (
{
automatic = 1;
code = "feature vert;
feature vrt2;
";
tag = aalt;
},
{
code = "sub comma-han by comma-han.vert;
sub period-han by period-han.vert;
sub colon.full by colon.full.vert;
sub blacklenticularbracketleft by blacklenticularbracketleft.vert;
sub blacklenticularbracketright by blacklenticularbracketright.vert;
sub cornerbracketleft by cornerbracketleft.vert;
sub cornerbracketright by cornerbracketright.vert;
sub dblanglebracketleft by dblanglebracketleft.vert;
sub dblanglebracketright by dblanglebracketright.vert;
sub tortoiseshellbracketleft by tortoiseshellbracketleft.vert;
sub tortoiseshellbracketright by tortoiseshellbracketright.vert;
sub whitecornerbracketleft by whitecornerbracketleft.vert;
sub whitecornerbracketright by whitecornerbracketright.vert;
sub whitelenticularbracketleft by whitelenticularbracketleft.vert;
sub whitelenticularbracketright by whitelenticularbracketright.vert;
sub braceleft.full by braceleft.full.vert;
sub braceright.full by braceright.full.vert;
sub bracketleft.full by bracketleft.full.vert;
sub bracketright.full by bracketright.full.vert;
sub parenleft.full by parenleft.full.vert;
sub parenright.full by parenright.full.vert;
sub angleLeft by anglebracketleft.vert;
sub angleRight by anglebracketright.vert;";
tag = vert;
},
{
automatic = 1;
code = "sub comma-han by comma-han.vert;

glyphs = (
{
glyphname = .notdef;
layers = (
{
hints = (
{
horizontal = 1;
place = (-120, 50);
place = (-120, 50);
type = Stem;
},
{
horizontal = 1;
place = (830, 50);
place = (830, 50);
type = Stem;
},
{
place = (100, 50);
place = (100, 50);
type = Stem;
},
{
place = (850, 50);
place = (850, 50);
type = Stem;
},
{
horizontal = 1;
place = (789, 91);
place = (789, 91);
type = Stem;
}
);
layerId = m01;
shapes = (
{
closed = 1;
nodes = (
(100,-120,l),
(900,-120,l),
(900,880,l),
(100,880,l)
);
},
{
closed = 1;
nodes = (
(500,421,l),
(182,830,l),
(818,830,l)
);
},
{
closed = 1;
nodes = (
(532,380,l),
(850,789,l),
(850,-29,l)
);
},
{
closed = 1;
nodes = (
(182,-70,l),
(500,339,l),
(818,-70,l)
);
},
{
closed = 1;
nodes = (
(150,789,l),
(468,380,l),
(150,-29,l)
);
}
);
vertWidth = 1000;
width = 1000;
}
);
note = ".notdef";
},
{
glyphname = "comma-han";
kernLeft = "comma-han";
layers = (
{
hints = (
{
horizontal = 1;
place = (-75, 245);
place = (-75, 245);
type = Stem;
},
{
place = (41, 242);
place = (41, 242);
type = Stem;
}
);
layerId = m01;
shapes = (
{
closed = 1;
nodes = (
(41,152,l),
(130,93,o),
(177,37,o),
(210,-33,cs),
(224,-63,o),
(234,-75,o),
(252,-75,cs),
(270,-75,o),
(283,-63,o),
(283,-38,cs),
(283,-16,o),
(276,3,o),
(258,29,cs),
(226,74,o),
(168,127,o),
(54,170,c)
);
}
);
vertWidth = 1000;
width = 1000;
}
);
note = cid01397;
unicode = 12289;
},
{
glyphname = "comma-han.vert";
kernBottom = comma.full.vert;
layers = (
{
hints = (
{
horizontal = 1;
place = (590, 240);
place = (590, 240);
type = Stem;
},
{
place = (697, 238);
place = (697, 238);
type = Stem;
}
);
layerId = m01;
shapes = (
{
closed = 1;
nodes = (
(697,813,l),
(784,755,o),
(829,700,o),
(862,631,cs),
(875,602,o),
(885,590,o),
(904,590,cs),
(921,590,o),
(935,602,o),
(935,627,cs),
(935,649,o),
(928,668,o),
(911,693,cs),
(879,737,o),
(821,789,o),
(710,830,c)
);
}
);
vertWidth = 1000;
width = 1000;
}
);
note = cid59877;
unicode = 65041;
},
{
glyphname = "period-han";
kernLeft = "comma-han";
layers = (
{
hints = (
{
horizontal = 1;
place = (-81, 32);
place = (-81, 32);
type = Stem;
},
{
horizontal = 1;
place = (166, 32);
place = (166, 32);
type = Stem;
},
{
place = (43, 32);
place = (43, 32);
type = Stem;
},
{
place = (290, 32);
place = (290, 32);
type = Stem;
}
);
layerId = m01;
shapes = (
{
closed = 1;
nodes = (
(260,-81,o),
(322,-18,o),
(322,59,cs),
(322,136,o),
(260,198,o),
(183,198,cs),
(106,198,o),
(43,136,o),
(43,59,cs),
(43,-18,o),
(106,-81,o),
(183,-81,cs)
);
},
{
closed = 1;
nodes = (
(242,166,o),
(290,118,o),
(290,59,cs),
(290,0,o),
(242,-49,o),
(183,-49,cs),
(123,-49,o),
(75,0,o),
(75,59,cs),
(75,118,o),
(123,166,o),
(183,166,cs)
);
}
);
vertWidth = 1000;
width = 1000;
}
);
note = cid01398;
unicode = 12290;
},
{
glyphname = "period-han.vert";
kernBottom = comma.full.vert;
layers = (
{
hints = (
{
horizontal = 1;
place = (542, 31);
place = (542, 31);
type = Stem;
},
{
horizontal = 1;
place = (784, 32);
place = (784, 32);
type = Stem;
},
{
place = (676, 32);
place = (676, 32);
type = Stem;
},
{
place = (918, 32);
place = (918, 32);
type = Stem;
}
);
layerId = m01;
shapes = (
{
closed = 1;
nodes = (
(889,542,o),
(950,604,o),
(950,679,cs),
(950,755,o),
(889,816,o),
(814,816,cs),
(738,816,o),
(676,755,o),
(676,679,cs),
(676,604,o),
(738,542,o),
(814,542,cs)
);
},
{
closed = 1;
nodes = (
(871,784,o),
(918,737,o),
(918,679,cs),
(918,621,o),
(871,573,o),
(814,573,cs),
(755,573,o),
(708,621,o),
(708,679,cs),
(708,737,o),
(755,784,o),
(814,784,cs)
);
}
);
vertWidth = 1000;
width = 1000;
}
);
note = cid59878;
unicode = 65042;
},
{
glyphname = "dot-kata";
layers = (
{
hints = (
{
horizontal = 1;
place = (295, 170);
place = (295, 170);
type = Stem;
},
{
place = (415, 170);
place = (415, 170);
type = Stem;
}
);
layerId = m01;
shapes = (
{
closed = 1;
nodes = (
(585,427,o),
(547,465,o),
(500,465,cs),
(453,465,o),
(415,427,o),
(415,380,cs),
(415,333,o),
(453,295,o),
(500,295,cs),
(547,295,o),
(585,333,o),
(585,380,cs)
);
}
);
vertWidth = 1000;
width = 1000;
}
);
note = cid01644;
unicode = 12539;
},
{
glyphname = colon.full;
layers = (
{
hints = (
{
horizontal = 1;
place = (35, 117);
place = (35, 117);
type = Stem;
},
{
horizontal = 1;
place = (534, 117);
place = (534, 117);
type = Stem;
},
{
place = (442, 117);
place = (442, 117);
type = Stem;
}
);
layerId = m01;
shapes = (
{
closed = 1;
nodes = (
(442,61,o),
(468,35,o),
(501,35,cs),
(533,35,o),
(559,61,o),
(559,94,cs),
(559,126,o),
(533,152,o),
(501,152,cs),
(468,152,o),
(442,126,o),
(442,94,cs)
);
},
{
closed = 1;
nodes = (
(442,560,o),
(468,534,o),
(501,534,cs),
(533,534,o),
(559,560,o),
(559,593,cs),
(559,625,o),
(533,651,o),
(501,651,cs),
(468,651,o),
(442,625,o),
(442,593,cs)
);
}
);
vertWidth = 1000;
width = 1000;
}
);
note = cid59969;
unicode = 65306;
},
{
glyphname = exclam.full;
layers = (
{
hints = (
{
horizontal = 1;
place = (-12, 110);
place = (-12, 110);
type = Stem;
},
{
place = (445, 111);
place = (445, 111);
type = Stem;
},
{
place = (480.5, 39);
place = (480.5, 39);
type = Stem;
}
);
layerId = m01;
shapes = (
{
closed = 1;
nodes = (
(534,-12,o),
(556,14,o),
(556,43,cs),
(556,74,o),
(534,98,o),
(500,98,cs),
(467,98,o),
(445,74,o),
(445,43,cs),
(445,14,o),
(467,-12,o),
(500,-12,cs)
);
},
{
closed = 1;
nodes = (
(470,764,o),
(454,746,o),
(454,703,cs),
(454,647,o),
(461,555,o),
(475,375,cs),
(486,203,l),
(514,203,l),
(525,375,ls),
(539,554,o),
(546,647,o),
(546,703,cs),
(546,746,o),
(530,764,o),
(500,764,cs)
);
}
);
vertWidth = 1000;
width = 1000;
}
);
note = cid59944;
unicode = 65281;
},
{
glyphname = question.full;
layers = (
{
hints = (
{
horizontal = 1;
place = (-12, 108);
place = (-12, 108);
type = Stem;
},
{
horizontal = 1;
place = (731, 33);
place = (731, 33);
type = Stem;
},
{
place = (395, 110);
place = (395, 110);
type = Stem;
},
{
place = (646, 64);
place = (646, 64);
type = Stem;
},
{
place = (427, 40);
place = (427, 40);
type = Stem;
}
);
layerId = m01;
shapes = (
{
closed = 1;
nodes = (
(417,96,o),
(395,73,o),
(395,42,cs),
(395,14,o),
(417,-12,o),
(450,-12,cs),
(483,-12,o),
(505,14,o),
(505,42,cs),
(505,73,o),
(483,96,o),
(450,96,cs)
);
},
{
closed = 1;
nodes = (
(363,708,l),
(407,726,o),
(434,731,o),
(481,731,cs),
(585,731,o),
(646,684,o),
(646,596,cs),
(646,532,o),
(620,494,o),
(536,431,cs),
(455,370,o),
(427,341,o),
(427,293,cs),
(427,260,o),
(429,236,o),
(433,197,c),
(465,197,l),
(469,269,ls),
(472,323,o),
(487,343,o),
(579,404,cs),
(674,466,o),
(710,523,o),
(710,596,cs),
(710,688,o),
(646,764,o),
(490,764,cs),
(357,764,o),
(257,698,o),
(243,592,c),
(252,574,o),
(266,568,o),
(283,568,cs),
(306,568,o),
(325,579,o),
(336,619,cs)
);
}
);
vertWidth = 1000;
width = 1000;
}
);
note = cid59974;
unicode = 65311;
},
{
glyphname = semicolon.full;
layers = (
{
hints = (
{
horizontal = 1;
place = (534, 117);
place = (534, 117);
type = Stem;
},
{
place = (516, 43);
place = (516, 43);
type = Stem;
},
{
place = (441, 117);
place = (441, 117);
type = Stem;
}
);
layerId = m01;
shapes = (
{
closed = 1;
nodes = (
(437,-77,l),
(531,-35,o),
(559,54,o),
(559,121,cs),
(559,165,o),
(537,203,o),
(495,203,cs),
(458,203,o),
(440,179,o),
(440,152,cs),
(440,108,o),
(481,94,o),
(516,82,c),
(515,44,o),
(495,-18,o),
(423,-54,c)
);
},
{
closed = 1;
nodes = (
(441,560,o),
(467,534,o),
(500,534,cs),
(532,534,o),
(558,560,o),
(558,593,cs),
(558,625,o),
(532,651,o),
(500,651,cs),
(467,651,o),
(441,625,o),
(441,593,cs)
);
}
);
vertWidth = 1000;
width = 1000;
}
);
note = cid59970;
unicode = 65307;
},
{
glyphname = colon.full.vert;
lastChange = "2023-08-27 06:02:24 +0000";
layers = (
{
hints = (
{
horizontal = 1;
place = (322, 117);
place = (322, 117);
type = Stem;
},
{
place = (193, 117);
place = (193, 117);
type = Stem;
},
{
place = (692, 117);
place = (692, 117);
type = Stem;
}
);
layerId = m01;
shapes = (
{
closed = 1;
nodes = (
(692,348,o),
(718,322,o),
(751,322,cs),
(783,322,o),
(809,348,o),
(809,381,cs),
(809,413,o),
(783,439,o),
(751,439,cs),
(718,439,o),
(692,413,o),
(692,381,cs)
);
},
{
closed = 1;
nodes = (
(193,348,o),
(219,322,o),
(252,322,cs),
(284,322,o),
(310,348,o),
(310,381,cs),
(310,413,o),
(284,439,o),
(252,439,cs),
(219,439,o),
(193,413,o),
(193,381,cs)
);
}
);
vertWidth = 1000;
width = 1000;
}
);
note = cid64716;
},
{
glyphname = angleLeft;
layers = (
{
hints = (
{
horizontal = 1;
place = (-89, 938);
place = (-89, 938);
type = Stem;
},
{
place = (533, 427);
place = (533, 427);
type = Stem;
}
);
layerId = m01;
shapes = (
{
closed = 1;
nodes = (
(960,823,l),
(930,849,l),
(533,380,l),
(930,-89,l),
(960,-63,l),
(586,380,l)
);
}
);
vertWidth = 1000;
width = 1000;
}
);
note = cid01404;
unicode = (9001,12296);
},
{
glyphname = angleRight;
layers = (
{
hints = (
{
horizontal = 1;
place = (-89, 938);
place = (-89, 938);
type = Stem;
},
{
place = (40, 427);
place = (40, 427);
type = Stem;
}
);
layerId = m01;
shapes = (
{
closed = 1;
nodes = (
(40,-63,l),
(70,-89,l),
(467,380,l),
(70,849,l),
(40,823,l),
(414,380,l)
);
}
);
vertWidth = 1000;
width = 1000;
}
);
note = cid01405;
unicode = (9002,12297);
},
{
glyphname = blacklenticularbracketleft;
layers = (
{
hints = (
{
horizontal = 1;
place = (-80, 17);
place = (-80, 17);
type = Stem;
},
{
horizontal = 1;
place = (823, 17);
place = (823, 17);
type = Stem;
},
{
place = (617, 80);
place = (617, 80);
type = Stem;
}
);
layerId = m01;
shapes = (
{
closed = 1;
nodes = (
(960,-63,l),
(802,8,o),
(697,161,o),
(697,380,cs),
(697,599,o),
(802,752,o),
(960,823,c),
(960,840,l),
(617,840,l),
(617,-80,l),
(960,-80,l)
);
}
);
vertWidth = 1000;
width = 1000;
}
);
note = cid01412;
unicode = 12304;
},
{
glyphname = blacklenticularbracketright;
layers = (
{
hints = (
{
horizontal = 1;
place = (-80, 17);
place = (-80, 17);
type = Stem;
},
{
horizontal = 1;
place = (823, 17);
place = (823, 17);
type = Stem;
},
{
place = (303, 80);
place = (303, 80);
type = Stem;
}
);
layerId = m01;
shapes = (
{
closed = 1;
nodes = (
(40,-80,l),
(383,-80,l),
(383,840,l),
(40,840,l),
(40,823,l),
(198,752,o),
(303,599,o),
(303,380,cs),
(303,161,o),
(198,8,o),
(40,-63,c)
);
}
);
vertWidth = 1000;
width = 1000;
}
);
note = cid01413;
unicode = 12305;
},
{
glyphname = braceleft.full;
layers = (
{
hints = (
{
horizontal = 1;
place = (-104, 35.5);
place = (-104, 35.5);
type = Stem;
},
{
horizontal = 1;
place = (829, 36);
place = (829, 36);
type = Stem;
},
{
place = (716, 53);
place = (716, 53);
type = Stem;
},
{
place = (740, 39);
place = (740, 39);
type = Stem;
}
);
layerId = m01;
shapes = (
{
closed = 1;
nodes = (
(972,830,l),
(972,865,l),
(916,865,ls),
(775,865,o),
(716,815,o),
(716,726,cs),
(716,642,o),
(740,554,o),
(740,501,cs),
(740,445,o),
(701,410,o),
(585,397,c),
(585,364,l),
(701,350,o),
(740,315,o),
(740,260,cs),
(740,207,o),
(716,119,o),
(716,34,cs),
(716,-54,o),
(775,-104,o),
(916,-104,cs),
(972,-104,l),
(972,-70,l),
(914,-67,ls),
(801,-61,o),
(769,-30,o),
(769,40,cs),
(769,123,o),
(779,191,o),
(779,252,cs),
(779,311,o),
(749,363,o),
(661,380,c),
(749,398,o),
(779,449,o),
(779,508,cs),
(779,569,o),
(769,637,o),
(769,721,cs),
(769,791,o),
(801,823,o),
(914,828,cs)
);
}
);
vertWidth = 1000;
width = 1000;
}
);
note = cid60034;
unicode = 65371;
},
{
glyphname = braceright.full;
layers = (
{
hints = (
{
horizontal = 1;
place = (-104, 36);
place = (-104, 36);
type = Stem;
},
{
horizontal = 1;
place = (829.5, 35.5);
place = (829.5, 35.5);
type = Stem;
},
{
place = (231, 53);
place = (231, 53);
type = Stem;
},
{
place = (221, 39);
place = (221, 39);
type = Stem;
}
);
layerId = m01;
shapes = (
{
closed = 1;
nodes = (
(415,397,l),
(299,411,o),
(260,446,o),
(260,501,cs),
(260,554,o),
(284,642,o),
(284,727,cs),
(284,815,o),
(225,865,o),
(84,865,cs),
(28,865,l),
(28,831,l),
(86,828,ls),
(199,822,o),
(231,791,o),
(231,721,cs),
(231,638,o),
(221,570,o),
(221,509,cs),
(221,450,o),
(251,398,o),
(339,381,c),
(251,363,o),
(221,312,o),
(221,253,cs),
(221,192,o),
(231,124,o),
(231,40,cs),
(231,-30,o),
(199,-62,o),
(86,-67,cs),
(28,-69,l),
(28,-104,l),
(84,-104,ls),
(225,-104,o),
(284,-54,o),
(284,35,cs),
(284,119,o),
(260,207,o),
(260,260,cs),
(260,316,o),
(299,351,o),
(415,364,c)
);
}
);
vertWidth = 1000;
width = 1000;
}
);
note = cid60036;
unicode = 65373;
},
{
glyphname = cornerbracketleft;
layers = (
{
hints = (
{
horizontal = 1;
place = (806, 34);
place = (806, 34);
type = Stem;
},
{
place = (660, 36);
place = (660, 36);
type = Stem;
}
);
layerId = m01;
shapes = (
{
closed = 1;
nodes = (
(660,186,l),
(696,186,l),
(696,806,l),
(960,806,l),
(960,840,l),
(660,840,l)
);
}
);
vertWidth = 1000;
width = 1000;
}
);
note = cid01408;
unicode = 12300;
},
{
glyphname = cornerbracketright;
layers = (
{
hints = (
{
horizontal = 1;
place = (-80, 34);
place = (-80, 34);
type = Stem;
},
{
place = (304, 36);
place = (304, 36);
type = Stem;
}
);
layerId = m01;
shapes = (
{
closed = 1;
nodes = (
(340,574,l),
(304,574,l),
(304,-46,l),
(40,-46,l),
(40,-80,l),
(340,-80,l)
);
}
);
vertWidth = 1000;
width = 1000;
}
);
note = cid01409;
unicode = 12301;
},
{
glyphname = dblanglebracketleft;
layers = (
{
hints = (
{
horizontal = 1;
place = (-83, 926);
place = (-83, 926);
type = Stem;
},
{
place = (521, 438);
place = (521, 438);
type = Stem;
}
);
layerId = m01;
shapes = (
{
closed = 1;
nodes = (
(561,380,l),
(816,825,l),
(787,843,l),
(521,380,l),
(787,-83,l),
(816,-65,l)
);
},
{
closed = 1;
nodes = (
(704,380,l),
(959,825,l),
(930,843,l),
(664,380,l),
(930,-83,l),
(959,-65,l)
);
}
);
vertWidth = 1000;
width = 1000;
}
);
note = cid01406;
unicode = 12298;
},
{
glyphname = dblanglebracketright;
layers = (
{
hints = (
{
horizontal = 1;
place = (-83, 926);
place = (-83, 926);
type = Stem;
},
{
place = (41, 438);
place = (41, 438);
type = Stem;
}
);
layerId = m01;
shapes = (
{
closed = 1;
nodes = (
(213,-83,l),
(479,380,l),
(213,843,l),
(184,825,l),
(439,380,l),
(184,-65,l)
);
},
{
closed = 1;
nodes = (
(70,-83,l),
(336,380,l),
(70,843,l),
(41,825,l),
(296,380,l),
(41,-65,l)
);
}
);
vertWidth = 1000;
width = 1000;
}
);
note = cid01407;
unicode = 12299;
},
{
glyphname = tortoiseshellbracketleft;
layers = (
{
hints = (
{
horizontal = 1;
place = (-86, 932);
place = (-86, 932);
type = Stem;
},
{
place = (710, 36);
place = (710, 36);
type = Stem;
}
);
layerId = m01;
shapes = (
{
closed = 1;
nodes = (
(943,-86,l),
(959,-55,l),
(746,44,l),
(746,716,l),
(959,815,l),
(943,846,l),
(710,737,l),
(710,23,l)
);
}
);
vertWidth = 1000;
width = 1000;
}
);
note = cid01416;
unicode = 12308;
},
{
glyphname = tortoiseshellbracketright;
layers = (
{
hints = (
{
horizontal = 1;
place = (-86, 932);
place = (-86, 932);
type = Stem;
},
{
place = (254, 36);
place = (254, 36);
type = Stem;
}
);
layerId = m01;
shapes = (
{
closed = 1;
nodes = (
(57,-86,l),
(290,23,l),
(290,737,l),
(57,846,l),
(41,815,l),
(254,715,l),
(254,45,l),
(41,-55,l)
);
}
);
vertWidth = 1000;
width = 1000;
}
);
note = cid01417;
unicode = 12309;
},
{
glyphname = whitecornerbracketleft;
layers = (
{
hints = (
{
horizontal = 1;
place = (176, 28);
place = (176, 28);
type = Stem;
},
{
horizontal = 1;
place = (695, 28);
place = (695, 28);
type = Stem;
},
{
horizontal = 1;
place = (813, 28);
place = (813, 28);
type = Stem;
},
{
place = (599, 28);
place = (599, 28);
type = Stem;
},
{
place = (721, 28);
place = (721, 28);
type = Stem;
},
{
place = (932, 28);
place = (932, 28);
type = Stem;
}
);
layerId = m01;
shapes = (
{
closed = 1;
nodes = (
(960,695,l),
(960,841,l),
(599,841,l),
(599,176,l),
(749,176,l),
(749,695,l)
);
},
{
closed = 1;
nodes = (
(932,813,l),
(932,723,l),
(721,723,l),
(721,204,l),
(627,204,l),
(627,813,l)
);
}
);
vertWidth = 1000;
width = 1000;
}
);
note = cid01410;
unicode = 12302;
},
{
glyphname = whitecornerbracketright;
layers = (
{
hints = (
{
horizontal = 1;
place = (-80, 28);
place = (-80, 28);
type = Stem;
},
{
horizontal = 1;
place = (38, 28);
place = (38, 28);
type = Stem;
},
{
horizontal = 1;
place = (556, 28);
place = (556, 28);
type = Stem;
},
{
place = (40, 28);
place = (40, 28);
type = Stem;
},
{
place = (251, 28);
place = (251, 28);
type = Stem;
},
{
place = (373, 28);
place = (373, 28);
type = Stem;
}
);
layerId = m01;
shapes = (
{
closed = 1;
nodes = (
(40,66,l),
(40,-80,l),
(401,-80,l),
(401,584,l),
(251,584,l),
(251,66,l)
);
},
{
closed = 1;
nodes = (
(68,-52,l),
(68,38,l),
(279,38,l),
(279,556,l),
(373,556,l),
(373,-52,l)
);
}
);
vertWidth = 1000;
width = 1000;
}
);
note = cid01411;
unicode = 12303;
},
{
glyphname = whitelenticularbracketleft;
layers = (
{
hints = (
{
horizontal = 1;
place = (-80, 28);
place = (-80, 28);
type = Stem;
},
{
horizontal = 1;
place = (812, 28);
place = (812, 28);
type = Stem;
},
{
place = (608, 28);
place = (608, 28);
type = Stem;
},
{
place = (672, 28);
place = (672, 28);
type = Stem;
},
{
horizontal = 1;
place = (818, 22);
place = (818, 22);
type = Stem;
}
);
layerId = m01;
shapes = (
{
closed = 1;
nodes = (
(960,-58,l),
(811,5,o),
(700,161,o),
(700,380,cs),
(700,599,o),
(811,755,o),
(960,818,c),
(960,840,l),
(608,840,l),
(608,-80,l),
(960,-80,l)
);
},
{
closed = 1;
nodes = (
(636,-52,l),
(636,812,l),
(889,812,l),
(804,760,o),
(672,628,o),
(672,380,cs),
(672,132,o),
(804,0,o),
(889,-52,c)
);
}
);
vertWidth = 1000;
width = 1000;
}
);
note = cid01418;
unicode = 12310;
},
{
glyphname = whitelenticularbracketright;
layers = (
{
hints = (
{
horizontal = 1;
place = (-80, 28);
place = (-80, 28);
type = Stem;
},
{
horizontal = 1;
place = (812, 28);
place = (812, 28);
type = Stem;
},
{
place = (300, 28);
place = (300, 28);
type = Stem;
},
{
place = (364, 28);
place = (364, 28);
type = Stem;
},
{
horizontal = 1;
place = (818, 22);
place = (818, 22);
type = Stem;
}
);
layerId = m01;
shapes = (
{
closed = 1;
nodes = (
(392,-80,l),
(392,840,l),
(40,840,l),
(40,818,l),
(189,755,o),
(300,599,o),
(300,380,cs),
(300,161,o),
(189,5,o),
(40,-58,c),
(40,-80,l)
);
},
{
closed = 1;
nodes = (
(328,628,o),
(196,760,o),
(111,812,c),
(364,812,l),
(364,-52,l),
(111,-52,l),
(196,0,o),
(328,132,o),
(328,380,cs)
);
}
);
vertWidth = 1000;
width = 1000;
}
);
note = cid01419;
unicode = 12311;
},
{
glyphname = anglebracketleft.vert;
layers = (
{
hints = (
{
horizontal = 1;
place = (-80, 427);
place = (-80, 427);
type = Stem;
},
{
place = (31, 938);
place = (31, 938);
type = Stem;
}
);
layerId = m01;
shapes = (
{
closed = 1;
nodes = (
(943,-80,l),
(969,-50,l),
(500,347,l),
(31,-50,l),
(57,-80,l),
(500,294,l)
);
}
);
vertWidth = 1000;
width = 1000;
}
);
note = cid59901;
unicode = 65087;
},
{
glyphname = anglebracketright.vert;
layers = (
{
hints = (
{
horizontal = 1;
place = (413, 427);
place = (413, 427);
type = Stem;
},
{
place = (31, 938);
place = (31, 938);
type = Stem;
}
);
layerId = m01;
shapes = (
{
closed = 1;
nodes = (
(57,840,l),
(31,810,l),
(500,413,l),
(969,810,l),
(943,840,l),
(500,466,l)
);
}
);
vertWidth = 1000;
width = 1000;
}
);
note = cid59902;
unicode = 65088;
},
{
glyphname = blacklenticularbracketleft.vert;
layers = (
{
hints = (
{
horizontal = 1;
place = (183, 80);
place = (183, 80);
type = Stem;
},
{
place = (40, 17);
place = (40, 17);
type = Stem;
},
{
place = (943, 17);
place = (943, 17);
type = Stem;
}
);
layerId = m01;
shapes = (
{
closed = 1;
nodes = (
(57,-80,l),
(128,78,o),
(281,183,o),
(500,183,cs),
(719,183,o),
(872,78,o),
(943,-80,c),
(960,-80,l),
(960,263,l),
(40,263,l),
(40,-80,l)
);
}
);
vertWidth = 1000;
width = 1000;
}
);
note = cid59897;
unicode = 65083;
},
{
glyphname = blacklenticularbracketright.vert;
layers = (
{
hints = (
{
horizontal = 1;
place = (497, 80);
place = (497, 80);
type = Stem;
},
{
place = (40, 17);
place = (40, 17);
type = Stem;
},
{
place = (943, 17);
place = (943, 17);
type = Stem;
}
);
layerId = m01;
shapes = (
{
closed = 1;
nodes = (
(943,840,l),
(872,682,o),
(719,577,o),
(500,577,cs),
(281,577,o),
(128,682,o),
(57,840,c),
(40,840,l),
(40,497,l),
(960,497,l),
(960,840,l)
);
}
);
vertWidth = 1000;
width = 1000;
}
);
note = cid59898;
unicode = 65084;
},
{
glyphname = bracketleft.full;
layers = (
{
hints = (
{
horizontal = 1;
place = (-80, 34);
place = (-80, 34);
type = Stem;
},
{
horizontal = 1;
place = (806, 34);
place = (806, 34);
type = Stem;
},
{
place = (710, 36);
place = (710, 36);
type = Stem;
}
);
layerId = m01;
shapes = (
{
closed = 1;
nodes = (
(710,-80,l),
(960,-80,l),
(960,-46,l),
(746,-46,l),
(746,806,l),
(960,806,l),
(960,840,l),
(710,840,l)
);
}
);
vertWidth = 1000;
width = 1000;
}
);
note = cid60002;
unicode = 65339;
},
{
glyphname = bracketright.full;
layers = (
{
hints = (
{
horizontal = 1;
place = (-80, 34);
place = (-80, 34);
type = Stem;
},
{
horizontal = 1;
place = (806, 34);
place = (806, 34);
type = Stem;
},
{
place = (254, 36);
place = (254, 36);
type = Stem;
}
);
layerId = m01;
shapes = (
{
closed = 1;
nodes = (
(290,-80,l),
(290,840,l),
(40,840,l),
(40,806,l),
(254,806,l),
(254,-46,l),
(40,-46,l),
(40,-80,l)
);
}
);
vertWidth = 1000;
width = 1000;
}
);
note = cid60004;
unicode = 65341;
},
{
glyphname = cornerbracketleft.vert;
layers = (
{
hints = (
{
horizontal = 1;
place = (186, 34);
place = (186, 34);
type = Stem;
},
{
place = (939, 36);
place = (939, 36);
type = Stem;
}
);
layerId = m01;
shapes = (
{
closed = 1;
nodes = (
(255,220,l),
(255,186,l),
(939,186,l),
(939,-80,l),
(975,-80,l),
(975,220,l)
);
}
);
vertWidth = 1000;
width = 1000;
}
);
note = cid59903;
unicode = 65089;
},
{
glyphname = cornerbracketright.vert;
layers = (
{
hints = (
{
horizontal = 1;
place = (540, 34);
place = (540, 34);
type = Stem;
},
{
place = (25, 36);
place = (25, 36);
type = Stem;
}
);
layerId = m01;
shapes = (
{
closed = 1;
nodes = (
(745,540,l),
(745,574,l),
(61,574,l),
(61,840,l),
(25,840,l),
(25,540,l)
);
}
);
vertWidth = 1000;
width = 1000;
}
);
note = cid59904;
unicode = 65090;
},
{
glyphname = dblanglebracketleft.vert;
layers = (
{
hints = (
{
horizontal = 1;
place = (-79, 438);
place = (-79, 438);
type = Stem;
},
{
place = (37, 926);
place = (37, 926);
type = Stem;
}
);
layerId = m01;
shapes = (
{
closed = 1;
nodes = (
(500,319,l),
(945,64,l),
(963,93,l),
(500,359,l),
(37,93,l),
(55,64,l)
);
},
{
closed = 1;
nodes = (
(500,176,l),
(945,-79,l),
(963,-50,l),
(500,216,l),
(37,-50,l),
(55,-79,l)
);
}
);
vertWidth = 1000;
width = 1000;
}
);
note = cid59899;
unicode = 65085;
},
{
glyphname = dblanglebracketright.vert;
layers = (
{
hints = (
{
horizontal = 1;
place = (401, 438);
place = (401, 438);
type = Stem;
},
{
place = (37, 926);
place = (37, 926);
type = Stem;
}
);
layerId = m01;
shapes = (
{
closed = 1;
nodes = (
(37,667,l),
(500,401,l),
(963,667,l),
(945,696,l),
(500,441,l),
(55,696,l)
);
},
{
closed = 1;
nodes = (
(37,810,l),
(500,544,l),
(963,810,l),
(945,839,l),
(500,584,l),
(55,839,l)
);
}
);
vertWidth = 1000;
width = 1000;
}
);
note = cid59900;
unicode = 65086;
},
{
glyphname = parenleft.full;
layers = (
{
hints = (
{
horizontal = 1;
place = (-86, 932);
place = (-86, 932);
type = Stem;
},
{
place = (655, 53);
place = (655, 53);
type = Stem;
}
);
layerId = m01;
shapes = (
{
closed = 1;
nodes = (
(655,140,o),
(787,0,o),
(917,-86,c),
(936,-65,l),
(818,27,o),
(708,173,o),
(708,380,cs),
(708,587,o),
(818,733,o),
(936,825,c),
(917,846,l),
(787,760,o),
(655,620,o),
(655,380,cs)
);
}
);
vertWidth = 1000;
width = 1000;
}
);
note = cid59951;
unicode = 65288;
},
{
glyphname = parenright.full;
layers = (
{
hints = (
{
horizontal = 1;
place = (-86, 932);
place = (-86, 932);
type = Stem;
},
{
place = (292, 53);
place = (292, 53);
type = Stem;
}
);
layerId = m01;
shapes = (
{
closed = 1;
nodes = (
(64,825,l),
(182,733,o),
(292,587,o),
(292,380,cs),
(292,173,o),
(182,27,o),
(64,-65,c),
(83,-86,l),
(213,0,o),
(345,140,o),
(345,380,cs),
(345,620,o),
(213,760,o),
(83,846,c)
);
}
);
vertWidth = 1000;
width = 1000;
}
);
note = cid59952;
unicode = 65289;
},
{
glyphname = tortoiseshellbracketleft.vert;
layers = (
{
hints = (
{
horizontal = 1;
place = (135, 35);
place = (135, 35);
type = Stem;
},
{
place = (34, 932);
place = (34, 932);
type = Stem;
}
);
layerId = m01;
shapes = (
{
closed = 1;
nodes = (
(143,170,l),
(34,-63,l),
(65,-80,l),
(166,135,l),
(834,135,l),
(935,-80,l),
(966,-63,l),
(857,170,l)
);
}
);
vertWidth = 1000;
width = 1000;
}
);
note = cid59895;
unicode = 65081;
},
{
glyphname = tortoiseshellbracketright.vert;
layers = (
{
hints = (
{
horizontal = 1;
place = (590, 35);
place = (590, 35);
type = Stem;
},
{
place = (34, 932);
place = (34, 932);
type = Stem;
}
);
layerId = m01;
shapes = (
{
closed = 1;
nodes = (
(966,823,l),
(935,840,l),
(834,625,l),
(166,625,l),
(65,840,l),
(34,823,l),
(143,590,l),
(857,590,l)
);
}
);
vertWidth = 1000;
width = 1000;
}
);
note = cid59896;
unicode = 65082;
},
{
glyphname = whitecornerbracketleft.vert;
layers = (
{
hints = (
{
horizontal = 1;
place = (-80, 28);
place = (-80, 28);
type = Stem;
},
{
horizontal = 1;
place = (125, 28);
place = (125, 28);
type = Stem;
},
{
horizontal = 1;
place = (243, 28);
place = (243, 28);
type = Stem;
},
{
place = (296, 28);
place = (296, 28);
type = Stem;
},
{
place = (810, 28);
place = (810, 28);
type = Stem;
},
{
place = (932, 28);
place = (932, 28);
type = Stem;
}
);
layerId = m01;
shapes = (
{
closed = 1;
nodes = (
(810,-80,l),
(960,-80,l),
(960,271,l),
(296,271,l),
(296,125,l),
(810,125,l)
);
},
{
closed = 1;
nodes = (
(932,-52,l),
(838,-52,l),
(838,153,l),
(324,153,l),
(324,243,l),
(932,243,l)
);
}
);
vertWidth = 1000;
width = 1000;
}
);
note = cid59905;
unicode = 65091;
},
{
glyphname = whitecornerbracketright.vert;
layers = (
{
hints = (
{
horizontal = 1;
place = (489, 28);
place = (489, 28);
type = Stem;
},
{
horizontal = 1;
place = (607, 28);
place = (607, 28);
type = Stem;
},
{
horizontal = 1;
place = (812, 28);
place = (812, 28);
type = Stem;
},
{
place = (40, 28);
place = (40, 28);
type = Stem;
},
{
place = (162, 28);
place = (162, 28);
type = Stem;
},
{
place = (676, 28);
place = (676, 28);
type = Stem;
}
);
layerId = m01;
shapes = (
{
closed = 1;
nodes = (
(190,840,l),
(40,840,l),
(40,489,l),
(704,489,l),
(704,635,l),
(190,635,l)
);
},
{
closed = 1;
nodes = (
(68,812,l),
(162,812,l),
(162,607,l),
(676,607,l),
(676,517,l),
(68,517,l)
);
}
);
vertWidth = 1000;
width = 1000;
}
);
note = cid59906;
unicode = 65092;
},
{
glyphname = whitelenticularbracketleft.vert;
layers = (
{
hints = (
{
horizontal = 1;
place = (180, 28);
place = (180, 28);
type = Stem;
},
{
horizontal = 1;
place = (244, 28);
place = (244, 28);
type = Stem;
},
{
place = (40, 28);
place = (40, 28);
type = Stem;
},
{
place = (932, 28);
place = (932, 28);
type = Stem;
}
);
layerId = m01;
shapes = (
{
closed = 1;
nodes = (
(62,-80,l),
(125,69,o),
(281,180,o),
(500,180,cs),
(719,180,o),
(875,69,o),
(938,-80,c),
(960,-80,l),
(960,272,l),
(40,272,l),
(40,-80,l)
);
},
{
closed = 1;
nodes = (
(68,244,l),
(932,244,l),
(932,-9,l),
(880,76,o),
(748,208,o),
(500,208,cs),
(252,208,o),
(120,76,o),
(68,-9,c)
);
}
);
vertWidth = 1000;
width = 1000;
}
);
note = cid59883;
unicode = 65047;
},
{
glyphname = whitelenticularbracketright.vert;
layers = (
{
hints = (
{
horizontal = 1;
place = (497, 28);
place = (497, 28);
type = Stem;
},
{
horizontal = 1;
place = (561, 28);
place = (561, 28);
type = Stem;
},
{
place = (40, 28);
place = (40, 28);
type = Stem;
},
{
place = (932, 28);
place = (932, 28);
type = Stem;
}
);
layerId = m01;
shapes = (
{
closed = 1;
nodes = (
(40,497,l),
(960,497,l),
(960,849,l),
(938,849,l),
(875,700,o),
(719,589,o),
(500,589,cs),
(281,589,o),
(125,700,o),
(62,849,c),
(40,849,l)
);
},
{
closed = 1;
nodes = (
(748,561,o),
(880,693,o),
(932,778,c),
(932,525,l),
(68,525,l),
(68,778,l),
(120,693,o),
(252,561,o),
(500,561,cs)
);
}
);
vertWidth = 1000;
width = 1000;
}
);
note = cid59884;
unicode = 65048;
},
{
glyphname = braceleft.full.vert;
layers = (
{
hints = (
{
horizontal = 1;
place = (57, 52);
place = (57, 52);
type = Stem;
},
{
place = (15, 35);
place = (15, 35);
type = Stem;
},
{
place = (484, 32);
place = (484, 32);
type = Stem;
},
{
place = (949.5, 35.5);
place = (949.5, 35.5);
type = Stem;
},
{
horizontal = 1;
place = (20, 39);
place = (20, 39);
type = Stem;
}
);
layerId = m01;
shapes = (
{
closed = 1;
nodes = (
(484,206,l),
(472,95,o),
(435,59,o),
(379,59,cs),
(327,59,o),
(238,109,o),
(154,109,cs),
(66,109,o),
(15,53,o),
(15,-81,cs),
(15,-119,l),
(49,-119,l),
(51,-79,ls),
(58,28,o),
(89,57,o),
(160,57,cs),
(243,57,o),
(311,20,o),
(372,20,cs),
(430,20,o),
(483,50,o),
(500,139,c),
(517,50,o),
(569,20,o),
(628,20,cs),
(689,20,o),
(757,57,o),
(841,57,cs),
(911,57,o),
(942,28,o),
(948,-79,cs),
(951,-119,l),
(985,-119,l),
(985,-81,ls),
(985,53,o),
(935,109,o),
(846,109,cs),
(762,109,o),
(674,59,o),
(621,59,cs),
(565,59,o),
(528,95,o),
(516,206,c)
);
}
);
vertWidth = 1000;
width = 1000;
}
);
note = cid59893;
unicode = 65079;
},
{
glyphname = braceright.full.vert;
layers = (
{
hints = (
{
horizontal = 1;
place = (650, 51);
place = (650, 51);
type = Stem;
},
{
place = (15, 36);
place = (15, 36);
type = Stem;
},
{
place = (950, 35);
place = (950, 35);
type = Stem;
},
{
horizontal = 1;
place = (700, 38);
place = (700, 38);
type = Stem;
},
{
place = (484, 32);
place = (484, 32);
type = Stem;
}
);
layerId = m01;
shapes = (
{
closed = 1;
nodes = (
(951,878,l),
(949,838,ls),
(942,730,o),
(911,701,o),
(841,701,cs),
(757,701,o),
(689,738,o),
(628,738,cs),
(570,738,o),
(517,708,o),
(500,620,c),
(483,708,o),
(431,738,o),
(372,738,cs),
(312,738,o),
(243,701,o),
(160,701,cs),
(89,701,o),
(58,730,o),
(52,838,cs),
(50,878,l),
(15,878,l),
(15,839,ls),
(15,705,o),
(66,650,o),
(155,650,cs),
(238,650,o),
(327,700,o),
(379,700,cs),
(436,700,o),
(472,664,o),
(484,553,c),
(516,553,l),
(528,664,o),
(565,700,o),
(621,700,cs),
(674,700,o),
(762,650,o),
(846,650,cs),
(935,650,o),
(985,705,o),
(985,839,cs),
(985,878,l)
);
}
);
vertWidth = 1000;
width = 1000;
}
);
note = cid59894;
unicode = 65080;
},
{
glyphname = bracketleft.full.vert;
layers = (
{
hints = (
{
horizontal = 1;
place = (136, 34);
place = (136, 34);
type = Stem;
},
{
place = (40, 36);
place = (40, 36);
type = Stem;
},
{
place = (924, 36);
place = (924, 36);
type = Stem;
}
);
layerId = m01;
shapes = (
{
closed = 1;
nodes = (
(40,170,l),
(40,-80,l),
(76,-80,l),
(76,136,l),
(924,136,l),
(924,-80,l),
(960,-80,l),
(960,170,l)
);
}
);
vertWidth = 1000;
width = 1000;
}
);
note = cid59909;
unicode = 65095;
},
{
glyphname = bracketright.full.vert;
layers = (
{
hints = (
{
horizontal = 1;
place = (590, 34);
place = (590, 34);
type = Stem;
},
{
place = (40, 36);
place = (40, 36);
type = Stem;
},
{
place = (924, 36);
place = (924, 36);
type = Stem;
}
);
layerId = m01;
shapes = (
{
closed = 1;
nodes = (
(960,590,l),
(960,840,l),
(924,840,l),
(924,624,l),
(76,624,l),
(76,840,l),
(40,840,l),
(40,590,l)
);
}
);
vertWidth = 1000;
width = 1000;
}
);
note = cid59910;
unicode = 65096;
},
{
glyphname = parenleft.full.vert;
layers = (
{
hints = (
{
horizontal = 1;
place = (173, 53);
place = (173, 53);
type = Stem;
},
{
place = (34, 932);
place = (34, 932);
type = Stem;
}
);
layerId = m01;
shapes = (
{
closed = 1;
nodes = (
(260,226,o),
(120,94,o),
(34,-36,c),
(55,-55,l),
(147,63,o),
(293,173,o),
(500,173,cs),
(707,173,o),
(853,63,o),
(945,-55,c),
(966,-36,l),
(880,94,o),
(740,226,o),
(500,226,cs)
);
}
);
vertWidth = 1000;
width = 1000;
}
);
note = cid59891;
unicode = 65077;
},
